<svg xmlns="http://www.w3.org/2000/svg" version="1" width="512px" height="512px" viewBox="0 0 1254.000000 1254.000000" preserveAspectRatio="xMidYMid meet"><g transform="translate(0.000000,1254.000000) scale(0.100000,-0.100000)" fill="#000000" stroke="none">
<path fill="#fff" d="M5959 11879c-338-20-736-85-1094-179-132-35-456-139-525-168-14-6-78-32-143-57-65-25-155-63-200-84-45-21-118-55-162-76-211-99-558-306-841-502-96-67-303-229-444-348-137-116-500-479-621-620-591-691-1006-1493-1223-2360-68-274-123-605-148-900-15-185-15-688 1-850 74-768 292-1421 694-2085 249-410 519-753 872-1105 412-412 796-706 1287-984 387-219 903-427 1313-530 864-215 1651-244 2500-90 738 133 1540 461 2159 883 65 44 135 92 155 105 101 68 342 262 481 386 741 667 1262 1432 1576 2315 174 491 254 968 254 1520 0 755-125 1404-405 2115-397 1003-1062 1884-1905 2522-459 348-978 623-1525 810-660 225-1376 323-2056 282z"></path>
<path fill="#944028" d="M5959 11879 c-338 -20 -736 -85 -1094 -179 -132 -35 -456 -139 -525
-168 -14 -6 -78 -32 -143 -57 -65 -25 -155 -63 -200 -84 -45 -21 -118 -55
-162 -76 -211 -99 -558 -306 -841 -502 -96 -67 -303 -229 -444 -348 -137 -116
-500 -479 -621 -620 -591 -691 -1006 -1493 -1223 -2360 -68 -274 -123 -605
-148 -900 -15 -185 -15 -688 1 -850 74 -768 292 -1421 694 -2085 249 -410 519
-753 872 -1105 412 -412 796 -706 1287 -984 387 -219 903 -427 1313 -530 864
-215 1651 -244 2500 -90 738 133 1540 461 2159 883 65 44 135 92 155 105 101
68 342 262 481 386 741 667 1262 1432 1576 2315 174 491 254 968 254 1520 0
755 -125 1404 -405 2115 -397 1003 -1062 1884 -1905 2522 -459 348 -978 623
-1525 810 -660 225 -1376 323 -2056 282z m721 -499 c1456 -127 2745 -859 3651
-2075 531 -714 860 -1493 988 -2345 56 -372 71 -855 37 -1183 -56 -539 -194
-1019 -436 -1512 -261 -533 -559 -946 -999 -1385 -452 -451 -893 -770 -1449
-1049 -754 -378 -1672 -575 -2480 -532 -746 41 -1453 217 -2042 510 -688 343
-1306 839 -1834 1471 -661 792 -1009 1578 -1092 2465 -20 218 -14 768 11 980
115 976 465 1834 1059 2600 347 447 817 878 1306 1197 817 534 1692 818 2690
872 102 6 463 -3 590 -14z"></path>
<path fill="#285433" d="M3645 7959 c-488 -32 -892 -190 -1233 -482 -299 -256 -535 -669 -608
-1065 -22 -117 -30 -412 -15 -543 40 -345 182 -652 414 -895 222 -234 474
-377 812 -464 229 -59 379 -73 685 -67 271 6 396 20 614 72 199 47 488 150
608 218 45 25 38 4 207 615 11 40 17 80 14 87 -3 8 -21 19 -40 24 -62 17 -179
35 -194 29 -9 -3 -32 -35 -53 -71 -58 -98 -162 -233 -243 -313 -228 -226 -482
-334 -782 -334 -546 0 -946 365 -1085 991 -66 302 -63 706 10 992 112 444 370
738 749 853 84 26 102 28 280 28 205 1 242 -5 383 -62 244 -100 442 -331 563
-657 39 -106 45 -115 73 -115 34 0 203 60 217 76 14 17 7 117 -31 479 -11 99
-25 235 -31 303 -7 67 -17 129 -23 137 -21 28 -370 107 -616 140 -124 16 -411
36 -500 33 -30 0 -109 -4 -175 -9z"></path>
<path fill="#285433" d="M5320 7912 c-68 -2 -107 -7 -112 -15 -13 -21 -9 -183 5 -194 6 -6 46
-13 87 -16 96 -8 156 -29 198 -70 65 -63 63 3 60 -1423 -3 -1432 2 -1322 -70
-1391 -41 -40 -103 -63 -191 -70 -39 -3 -75 -12 -83 -20 -14 -15 -20 -145 -8
-177 6 -14 86 -16 808 -16 610 0 805 3 814 12 7 7 12 43 12 89 0 98 -9 109
-90 109 -78 0 -199 24 -248 49 -51 26 -88 71 -104 124 -8 30 -12 188 -12 567
l-1 525 95 -1 c98 -1 138 -12 171 -50 9 -11 117 -194 239 -409 367 -642 562
-979 578 -997 14 -17 54 -18 567 -18 495 0 553 2 559 16 3 9 6 51 6 94 0 89
-8 100 -73 100 -19 0 -66 16 -108 37 -182 90 -433 409 -829 1053 -45 74 -105
170 -131 212 -27 42 -49 81 -49 85 0 5 51 30 113 55 321 135 556 330 672 558
65 129 80 197 79 365 0 136 -3 158 -27 231 -64 191 -226 362 -433 455 -148 66
-362 112 -575 124 -115 7 -1724 12 -1919 7z m1565 -287 c170 -35 305 -136 375
-280 51 -103 70 -197 70 -344 0 -218 -59 -370 -195 -506 -146 -147 -300 -202
-588 -212 l-168 -6 3 639 c3 581 5 642 20 670 10 17 25 35 35 39 64 26 318 26
448 0z"></path>
<path fill="#285433" d="M8935 7912 c-104 -2 -152 -6 -157 -15 -13 -21 -9 -183 5 -194 6 -6
42 -13 78 -17 150 -14 223 -59 250 -152 21 -72 21 -2578 0 -2639 -37 -108
-103 -148 -270 -164 -52 -5 -86 -14 -92 -22 -13 -21 -11 -163 3 -177 9 -9 204
-12 814 -12 722 0 802 2 808 16 3 9 6 51 6 94 0 94 -1 95 -110 103 -157 12
-243 62 -277 160 -17 49 -18 128 -18 1317 0 1402 -3 1332 65 1400 42 42 114
66 230 76 50 4 79 12 88 22 14 18 17 169 3 191 -7 11 -119 14 -642 15 -349 0
-701 0 -784 -2z"></path>
</g></svg>